<?xml version="1.0" encoding="iso-8859-1"?>
<!-- Generator: Adobe Illustrator 19.0.0, SVG Export Plug-In . SVG Version: 6.00 Build 0)  -->
<svg version="1.1" id="Capa_1" xmlns="http://www.w3.org/2000/svg" xmlns:xlink="http://www.w3.org/1999/xlink" x="0px" y="0px"
	 viewBox="0 0 512 512" style="enable-background:new 0 0 512 512;" xml:space="preserve">
<g>
	<g>
		<g>
			<path d="M432,0H80C35.817,0,0,35.817,0,80v352c0,44.183,35.817,80,80,80h352c44.183,0,80-35.817,80-80V80
				C512,35.817,476.183,0,432,0z M480,432c0,26.51-21.49,48-48,48H80c-26.51,0-48-21.49-48-48V80c0-26.51,21.49-48,48-48h352
				c26.51,0,48,21.49,48,48V432z"/>
			<circle cx="128" cy="112" r="32"/>
			<path d="M272,128c44.183,0,80,35.817,80,80h32c0-61.856-50.144-112-112-112s-112,50.144-112,112v96c0,61.856,50.144,112,112,112
				s112-50.144,112-112h-32c0,44.183-35.817,80-80,80s-80-35.817-80-80v-96C192,163.817,227.817,128,272,128z"/>
		</g>
	</g>
</g>
<g>
</g>
<g>
</g>
<g>
</g>
<g>
</g>
<g>
</g>
<g>
</g>
<g>
</g>
<g>
</g>
<g>
</g>
<g>
</g>
<g>
</g>
<g>
</g>
<g>
</g>
<g>
</g>
<g>
</g>
</svg>
